<svg width="30" height="30" viewBox="0 0 30 30" fill="none" xmlns="http://www.w3.org/2000/svg">
<path d="M12.4362 29.7202C4.40965 28.349 -0.419882 21.2047 0.0287629 14.2009C0.575431 5.59424 7.70851 -0.266327 15.5353 0.128682C23.1736 0.516095 29.2887 6.57796 29.5979 14.444C29.9108 22.3783 24.1123 28.6415 17.1828 29.6936V19.4044H20.5759L21.247 15.0289H17.0923C17.1489 13.8059 17.1263 12.6436 17.2771 11.5004C17.394 10.6154 18.1329 10.0875 19.034 10.0115C19.4185 9.97732 19.8031 9.96593 20.1876 9.95453C20.5722 9.94694 20.9567 9.95453 21.4242 9.95453C21.4242 8.7733 21.428 7.63385 21.4129 6.4944C21.4129 6.39565 21.2847 6.22474 21.198 6.21334C19.3054 5.97026 17.3977 5.63982 15.5466 6.42224C13.7671 7.17428 12.8057 8.59479 12.5908 10.4787C12.4513 11.6903 12.4928 12.9209 12.4589 14.1439C12.4513 14.4136 12.4589 14.6832 12.4589 15.0175H8.76037V19.3778H12.4249V29.7202H12.4362Z" fill="#FF7000"/>
</svg>
