<svg width="31" height="30" viewBox="0 0 31 30" fill="none" xmlns="http://www.w3.org/2000/svg">
<path d="M29.901 14.9845C29.901 17.2228 30.0454 19.4687 29.8706 21.6918C29.5324 25.9859 27.2295 28.9842 22.4718 29.6151C21.0315 29.8051 19.5609 29.8393 18.1054 29.8279C14.6056 29.7975 11.0943 29.8393 7.60957 29.5809C3.58907 29.2806 0.757992 26.3431 0.404583 22.3226C0.218378 20.1413 0.184177 17.941 0.168977 15.7445C0.153776 13.2364 0.127176 10.7207 0.29818 8.22023C0.583188 4.04387 2.82905 0.851751 7.66657 0.224726C9.10681 0.0385193 10.5775 0.000517848 12.0329 0.000517848C15.1642 -0.0032823 18.2993 0.0119183 21.4305 0.110722C23.589 0.179125 25.6106 0.768148 27.2599 2.26541C28.7647 3.62966 29.5856 5.38533 29.7604 7.3614C29.9808 9.8923 30.0112 12.4422 30.1214 14.9845H29.9048H29.901ZM15.0882 2.75182C12.8917 2.75182 10.6915 2.67202 8.4988 2.77082C5.69812 2.89623 3.84367 4.26808 3.23946 6.73438C2.91645 8.05683 2.85185 9.45908 2.81765 10.8309C2.75304 13.358 2.77585 15.8889 2.81005 18.4198C2.82905 19.6967 2.88225 20.9849 3.04945 22.2504C3.31166 24.2075 4.20848 25.8187 6.16933 26.4913C7.27136 26.8676 8.4722 27.126 9.63123 27.1374C13.6745 27.1868 17.7216 27.1602 21.7649 27.0538C24.4402 26.9816 26.2871 25.5565 26.9293 23.1282C27.2257 21.9996 27.3207 20.7949 27.3435 19.6207C27.4005 16.5654 27.4043 13.51 27.3549 10.4547C27.3359 9.24247 27.2409 8.00363 26.9711 6.82558C26.4125 4.35549 24.4212 2.85823 21.6167 2.76322C19.4431 2.69102 17.2618 2.74802 15.0844 2.75182H15.0882Z" fill="#FF7000"/>
<path d="M15.1603 7.27825C19.4962 7.36945 22.7719 10.7706 22.7339 14.9469C22.6921 19.4577 19.12 22.6042 15.0121 22.551C10.6267 22.494 7.39286 19.0207 7.43846 14.8861C7.48787 10.3146 11.1208 7.26305 15.1603 7.27445V7.27825ZM15.1375 9.91555C12.2152 9.96875 10.0643 12.1272 10.0909 14.9279C10.1175 17.8047 12.2418 19.8719 15.0121 19.9137C17.8583 19.9593 20.07 17.8313 20.0814 14.9469C20.0928 12.112 17.9457 10.003 15.1375 9.91555Z" fill="#FF7000"/>
<path d="M24.8241 6.93986C24.8241 7.89749 24.0489 8.69172 23.0988 8.70692C22.1412 8.72593 21.3014 7.90129 21.3014 6.93986C21.3014 5.96702 22.1184 5.16519 23.0988 5.18039C24.0641 5.19559 24.8279 5.97082 24.8279 6.93606L24.8241 6.93986Z" fill="#FF7000"/>
</svg>
