<svg width="31" height="30" viewBox="0 0 31 30" fill="none" xmlns="http://www.w3.org/2000/svg">
<path d="M30.6515 14.9829C30.5271 23.1531 23.9078 29.7164 15.3801 29.7202C6.86411 29.7277 0.0582804 23.1229 0.116583 14.817C0.174885 6.67318 6.85245 0.0985618 15.3996 0.109878C23.9428 0.121194 30.6048 6.7373 30.6515 14.9829ZM18.2525 12.3463L18.3924 12.4972C18.2758 12.6707 18.1903 12.8706 18.0426 13.0102C16.5889 14.3832 15.1197 15.7411 13.6661 17.1179C12.811 17.9289 12.8537 18.3777 13.8371 19.0378C15.2752 19.9959 16.7133 20.9465 18.167 21.8819C19.644 22.8325 20.468 22.4817 20.7712 20.7805C21.2531 18.0571 21.7351 15.3375 22.1821 12.6103C22.3337 11.6824 22.4114 10.7394 22.4464 9.80018C22.4697 9.18534 22.116 8.90998 21.4902 9.00428C21.0044 9.07595 20.5146 9.21174 20.0599 9.39657C16.6434 10.7658 13.2346 12.1501 9.82976 13.542C8.72979 13.9909 7.6337 14.4473 6.56483 14.9527C6.2772 15.0885 6.09063 15.4205 5.85742 15.6581C6.11007 15.8731 6.33162 16.1749 6.62313 16.2843C7.40049 16.5709 8.20895 16.7746 9.00575 17.0009C9.88029 17.2499 10.6732 17.1066 11.4389 16.6049C13.4989 15.2583 15.5784 13.9418 17.6539 12.6216C17.8366 12.5047 18.0504 12.4406 18.2525 12.3538V12.3463Z" fill="#FF7000"/>
</svg>
