<svg width="26" height="30" viewBox="0 0 26 30" fill="none" xmlns="http://www.w3.org/2000/svg">
<path d="M10.6561 10.9822V16.1412C10.5047 16.1299 10.376 16.1336 10.2512 16.111C7.97323 15.7188 5.75583 17.0991 5.26013 19.3391C4.88552 21.0362 5.35473 22.5522 6.74722 23.676C8.07918 24.7508 9.60033 24.9771 11.1593 24.2983C12.7259 23.6119 13.6794 22.3712 13.7362 20.6213C13.8005 18.6339 13.7665 16.6427 13.7665 14.6553C13.7665 10.0394 13.7665 5.41969 13.7665 0.803762V0.109863H18.6667C18.9959 1.17711 19.1813 2.2519 19.6392 3.19469C20.8084 5.59694 22.8139 6.89046 25.4816 7.1469C25.7276 7.16952 26 7.10919 26 7.50516C25.9924 9.04758 26 10.59 26 12.2078C23.3626 12.2154 21.0392 11.4234 18.8294 9.91872C18.8294 10.243 18.8294 10.4505 18.8294 10.6541C18.8256 14.0142 18.8445 17.3781 18.8105 20.7383C18.784 23.2084 17.7926 25.3127 16.0368 27.0135C13.0248 29.9286 8.74894 30.5509 5.04444 28.5785C2.41837 27.1794 0.791269 24.9695 0.250163 22.0205C-0.726099 16.7069 2.91786 11.9589 7.87484 11.1368C8.77164 10.9897 9.7025 11.0312 10.6561 10.9822Z" fill="#FF7000"/>
</svg>
