<svg width="27" height="31" viewBox="0 0 27 31" fill="none" xmlns="http://www.w3.org/2000/svg">
<path d="M26.0327 9.59657C25.1689 9.81198 24.4163 9.99845 23.6414 10.1946C23.4857 9.94701 23.346 9.78626 23.2666 9.59657C20.6878 3.41082 14.0281 0.877369 8.0163 3.78055C5.77735 4.86081 4.32917 6.65159 3.55745 8.9632C2.2903 12.7537 2.08704 16.6343 3.19858 20.4956C5.18347 27.3918 14.2568 30.1536 19.7923 25.5946C22.8728 23.058 22.9236 18.9684 19.8272 17.1069C19.6557 17.6695 19.5096 18.2193 19.3191 18.7562C18.0265 22.3989 14.2886 24.1382 10.6967 22.7782C8.65464 22.0066 7.36526 20.3284 7.30492 18.3769C7.23505 16.1553 8.3053 14.2487 10.5411 13.5864C12.5228 12.9981 14.6569 12.937 16.8959 12.6187C16.9817 11.5288 16.2195 10.6672 15.1428 10.1914C13.1421 9.304 11.3287 9.79269 9.74078 11.4259L7.63521 9.91807C9.52482 7.211 12.129 6.74482 15.0063 7.211C17.3945 7.60003 19.119 9.60621 19.7065 12.2715C19.8621 12.9724 20.2019 13.9079 20.7418 14.2037C26.6171 17.4445 25.5659 24.8134 21.3135 27.8805C17.042 30.9605 12.3259 31.1984 7.57169 29.353C2.76032 27.4851 0.50866 23.4277 0.111682 18.5055C-0.142384 15.3611 0.0259345 12.0496 0.730967 8.98571C1.84886 4.13742 5.18347 1.1185 10.0806 0.301876C17.6263 -0.958422 23.3936 1.69077 25.9057 8.9407C25.9565 9.08538 25.9661 9.24613 26.0327 9.59657ZM17.1913 15.583C15.3747 15.673 13.7137 15.6376 12.0909 15.8788C10.8587 16.062 9.98214 16.8722 10.0679 18.3061C10.1505 19.7143 11.1762 20.1644 12.3164 20.3509C15.2032 20.8267 16.6037 19.5696 17.1913 15.5798V15.583Z" fill="#FF7000"/>
</svg>
