<svg width="33" height="30" viewBox="0 0 33 30" fill="none" xmlns="http://www.w3.org/2000/svg">
<path d="M12.9278 16.5762C8.7067 11.1286 4.58962 5.81176 0.199097 0.147464C3.50354 0.147464 6.44982 0.1101 9.38839 0.1923C9.76582 0.203509 10.1664 0.820006 10.4783 1.21606C13.0279 4.46668 15.5582 7.72851 18.2041 11.1323C21.4662 7.76961 24.6281 4.57877 27.6938 1.30199C28.6759 0.252081 29.6849 -0.185071 31.4257 0.319335C27.3934 4.5003 23.465 8.56919 19.4404 12.7389C23.7616 18.3173 28.0404 23.8396 32.585 29.7094C29.2998 29.7094 26.4036 29.7543 23.5151 29.6609C23.0837 29.6459 22.61 29.0182 22.2711 28.5885C19.9256 25.5994 17.6148 22.5842 15.2886 19.5802C14.942 19.1318 14.5646 18.7059 14.1255 18.1791C10.7017 21.7024 7.32022 25.0988 4.05428 28.596C3.04909 29.6721 2.02848 29.9672 0.383961 29.5151C4.60888 25.1586 8.72596 20.9103 12.9278 16.5762ZM4.48949 2.33696C4.91313 2.89741 5.27131 3.39061 5.64489 3.8726C11.2216 11.0501 16.9216 18.1454 22.3096 25.4575C23.9888 27.7366 25.8374 27.9645 28.4332 27.5573C28.025 26.9968 27.7169 26.541 27.378 26.1038C21.8667 19.016 16.2553 12.0029 10.9097 4.80295C9.25359 2.57235 7.52049 1.53365 4.48949 2.33696Z" fill="#FF7000"/>
</svg>
