<svg width="30" height="30" viewBox="0 0 30 30" fill="none" xmlns="http://www.w3.org/2000/svg">
<path d="M-0.00883305 30.0027C0.668954 27.5233 1.33144 25.1287 1.96687 22.7271C2.02806 22.4941 1.98923 22.1834 1.88097 21.9646C-0.983152 16.1398 -0.553651 10.5516 3.48836 5.49762C6.96437 1.15084 11.6712 -0.574219 17.223 0.17064C23.2983 0.986103 28.3088 5.77297 29.6008 11.8801C30.9799 18.3979 27.6192 25.2935 21.5897 28.2164C17.1994 30.3451 12.7997 30.2851 8.39055 28.2411C8.07284 28.0941 7.63039 28.0611 7.28915 28.1458C5.02985 28.7048 2.78116 29.3108 0.528925 29.8991C0.380659 29.938 0.22651 29.958 -0.0100098 30.0027H-0.00883305ZM3.49189 26.569C4.94395 26.1901 6.29365 25.8159 7.65746 25.4994C7.96223 25.4288 8.36349 25.4629 8.63531 25.6077C12.0972 27.4692 15.6662 27.8846 19.394 26.5043C26.073 24.0332 29.3172 16.1386 26.3013 9.6879C24.075 4.92574 19.3493 2.12634 14.087 2.49818C10.4498 2.7547 7.45859 4.33974 5.23931 7.21092C1.91274 11.5142 1.67504 16.8317 4.44973 21.5139C4.59565 21.761 4.64978 22.1434 4.5827 22.4235C4.26028 23.772 3.88256 25.1064 3.49071 26.569H3.49189Z" fill="#FF7000"/>
<path d="M10.1568 8.02992C10.8287 7.86636 11.1334 8.31822 11.3629 8.92775C11.6371 9.65967 11.9195 10.3928 12.2619 11.0953C12.5537 11.693 12.4443 12.1661 12.0513 12.6615C11.084 13.8794 11.0911 13.8888 12.0172 15.1561C13.1174 16.6635 14.5424 17.7531 16.251 18.4991C16.7664 18.7239 17.1335 18.6851 17.4653 18.2156C17.7242 17.8484 18.049 17.5284 18.3043 17.1589C18.5703 16.7741 18.8927 16.6505 19.3104 16.8482C20.2836 17.3083 21.2638 17.7578 22.2075 18.272C22.3946 18.3744 22.5311 18.7533 22.524 19.0004C22.484 20.3172 21.7592 21.175 20.5872 21.6904C19.5717 22.1364 18.5291 22.1175 17.4853 21.821C13.1515 20.5902 10.1579 17.7331 8.0634 13.8735C7.10202 12.1013 7.13967 10.301 8.53879 8.67829C8.95181 8.19937 9.43427 7.93108 10.1579 8.02874L10.1568 8.02992Z" fill="#FF7000"/>
</svg>
